# xmcd CD database file
#
# Track frame offsets:
#	150
#	21722
#	34224
#	50255
#	77411
#	99176
#	116621
#	140986
#	160271
#	186080
#	207266
#	222275
#	243295
#	261635
#
# Disc length: 3555 seconds
#
# Revision: 0
# Processed by: cddbd v1.5.1PL0 Copyright (c) Steve Scherf et al.
# Submitted via: CdAid (MTCDDB.DLL V2003.12.21)
#
DISCID=cb0de10e
DTITLE=Vários Artistas - A casa da sete mulheres
DYEAR=2003
DGENRE=Rock
TTITLE0=Gal Costa - Gal Costa - Merceditas
TTITLE1=Zizi Possi - Zizi Possi - Passione
TTITLE2=Rodrigo Faro - La Media Vuelta
TTITLE3=Milton Nascimento - Milton e M.Rita - Tristesse
TTITLE4=Sagrado coração da terra - Cavalo Baio
TTITLE5=Adriana Mezzadri - Sete Vidas
TTITLE6=Paula Santoro - Piel de Lava
TTITLE7=Flavio Venturini - Prenda Minha
TTITLE8=Jorge Vercilo - Fenix
TTITLE9=Agnaldo Rayol - Il Dio del Buoni
TTITLE10=Adriana Mezzadri - Te Tengo Miedo
TTITLE11=Leila Pinheiro - Uma Voz no Vento
TTITLE12=Marcus Viana - Vidas, Amores e Guerras
TTITLE13=Marcus Viana - A Saga dos Pampas
EXTD=ID3G:  17 YEAR: 2003
EXTT0=
EXTT1=
EXTT2=
EXTT3=
EXTT4=
EXTT5=
EXTT6=
EXTT7=
EXTT8=
EXTT9=
EXTT10=
EXTT11=
EXTT12=
EXTT13=
PLAYORDER=
